<svg id="svg" version="1.1" xmlns="http://www.w3.org/2000/svg" xmlns:xlink="http://www.w3.org/1999/xlink" width="400" height="400" viewBox="0, 0, 400,400"><g id="svgg"><path id="path0" d="M80.719 70.941 C 72.063 73.055,70.883 83.790,78.804 88.356 C 80.642 89.416,294.198 90.202,299.783 89.169 C 309.734 87.330,310.730 73.867,301.126 71.015 C 298.423 70.212,83.997 70.140,80.719 70.941 M80.800 110.969 C 73.028 113.032,70.879 121.011,76.590 126.600 C 79.139 129.094,77.914 128.962,101.200 129.252 C 137.704 129.707,298.398 129.648,300.200 129.179 C 309.180 126.841,310.646 115.548,302.491 111.531 L 300.600 110.600 191.600 110.546 C 108.245 110.504,82.177 110.604,80.800 110.969 M116.800 150.794 L 79.400 151.000 77.800 152.052 C 75.917 153.290,74.400 154.963,74.400 155.803 C 74.400 156.131,74.220 156.400,74.000 156.400 C 73.195 156.400,73.537 162.897,74.400 164.000 C 74.830 164.550,75.186 165.148,75.191 165.329 C 75.213 166.121,78.088 168.076,80.200 168.733 C 81.464 169.127,104.871 169.207,191.813 169.116 L 301.826 169.000 303.813 167.576 C 310.681 162.655,308.192 151.938,299.907 150.758 C 297.633 150.435,177.804 150.458,116.800 150.794 M290.200 185.429 L 285.000 190.441 182.600 190.641 L 80.200 190.841 78.513 191.677 C 76.856 192.497,75.087 194.197,74.100 195.918 C 73.518 196.933,73.407 203.600,73.973 203.600 C 74.178 203.600,74.457 203.951,74.594 204.380 C 74.970 205.565,76.801 207.297,78.738 208.300 L 80.476 209.200 172.738 209.206 C 223.482 209.209,265.230 209.358,265.511 209.536 C 265.868 209.763,262.924 212.933,255.711 220.091 L 245.400 230.322 162.859 230.563 L 80.317 230.804 78.459 231.729 C 75.052 233.424,73.604 235.919,73.602 240.100 C 73.601 242.168,73.764 243.600,74.000 243.600 C 74.220 243.600,74.400 243.852,74.400 244.160 C 74.400 244.882,76.873 247.355,78.521 248.281 C 79.737 248.964,83.384 249.005,152.200 249.105 C 192.020 249.163,224.835 249.296,225.122 249.401 C 225.901 249.686,225.356 250.429,221.420 254.447 L 217.904 258.036 220.638 260.918 C 222.141 262.503,223.648 264.092,223.986 264.449 C 227.494 268.155,238.157 278.786,238.472 278.891 C 238.697 278.966,240.123 277.802,241.640 276.305 C 244.913 273.077,245.370 273.274,242.200 276.547 C 239.703 279.125,239.669 279.196,240.900 279.212 C 241.408 279.219,242.235 279.755,242.800 280.445 C 244.476 282.491,258.095 295.917,259.165 296.578 C 259.453 296.757,259.804 296.741,259.945 296.543 C 260.435 295.851,263.747 293.200,264.120 293.200 C 264.327 293.200,263.337 294.337,261.919 295.727 C 260.501 297.117,259.236 298.530,259.107 298.866 C 258.944 299.289,262.008 302.612,269.036 309.636 C 279.895 320.489,279.657 320.207,278.300 320.620 C 277.805 320.771,277.130 321.127,276.800 321.410 C 276.470 321.694,275.480 322.120,274.600 322.358 C 273.720 322.596,272.411 323.152,271.690 323.595 C 270.970 324.038,270.063 324.400,269.675 324.400 C 269.287 324.400,268.256 324.772,267.385 325.226 C 265.884 326.009,263.088 327.155,258.600 328.828 C 256.117 329.754,296.817 330.044,300.781 329.129 C 307.558 327.564,310.160 319.055,305.489 313.734 C 303.195 311.122,301.686 310.637,295.400 310.491 C 292.320 310.419,289.555 310.277,289.255 310.176 C 288.718 309.993,342.167 256.027,343.781 255.123 C 344.354 254.802,344.602 254.807,344.714 255.143 C 344.902 255.707,345.600 255.750,345.600 255.197 C 345.600 254.976,348.309 252.100,351.619 248.807 C 356.641 243.812,357.574 242.702,357.252 242.110 C 356.824 241.325,296.238 180.674,295.722 180.516 C 295.545 180.461,293.060 182.672,290.200 185.429 M386.400 205.153 C 386.400 206.253,386.580 207.264,386.800 207.400 C 387.046 207.552,387.200 206.879,387.200 205.647 C 387.200 204.547,387.020 203.536,386.800 203.400 C 386.554 203.248,386.400 203.921,386.400 205.153 M80.600 270.895 C 73.549 272.713,71.107 280.797,76.000 286.125 C 78.999 289.392,73.150 289.109,144.647 289.447 L 204.695 289.731 205.199 288.165 C 205.476 287.304,205.948 286.150,206.246 285.600 C 206.545 285.050,207.041 283.880,207.349 283.000 C 208.070 280.940,209.449 277.537,210.592 275.000 C 211.088 273.900,211.621 272.415,211.778 271.700 L 212.064 270.400 147.132 270.441 C 103.967 270.469,81.664 270.621,80.600 270.895 M81.000 310.849 C 72.010 312.920,70.666 323.631,78.800 328.384 C 80.231 329.221,97.777 329.521,147.668 329.564 L 188.736 329.600 189.424 327.528 C 189.803 326.388,190.430 324.903,190.817 324.228 C 191.205 323.552,191.654 322.373,191.814 321.606 C 191.974 320.839,192.352 319.835,192.654 319.374 C 192.956 318.913,193.483 317.591,193.827 316.436 C 194.170 315.280,194.799 313.714,195.225 312.955 C 195.651 312.196,196.000 311.311,196.000 310.988 C 196.000 310.296,83.989 310.160,81.000 310.849 " stroke="none" fill="#31a5d5" fill-rule="evenodd"></path><path id="path1" d="M71.403 27.494 C 69.425 27.571,67.634 27.806,67.423 28.017 C 67.212 28.228,66.547 28.400,65.944 28.400 C 65.341 28.400,64.736 28.580,64.600 28.800 C 64.464 29.020,63.924 29.200,63.400 29.200 C 62.876 29.200,62.336 29.380,62.200 29.600 C 62.064 29.820,61.513 30.000,60.976 30.000 C 60.439 30.000,60.000 30.180,60.000 30.400 C 60.000 30.620,59.640 30.800,59.200 30.800 C 58.760 30.800,58.400 30.980,58.400 31.200 C 58.400 31.420,58.040 31.600,57.600 31.600 C 57.160 31.600,56.800 31.780,56.800 32.000 C 56.800 32.220,56.440 32.400,56.000 32.400 C 55.560 32.400,55.200 32.580,55.200 32.800 C 55.200 33.020,54.964 33.200,54.675 33.200 C 54.387 33.200,53.764 33.560,53.292 34.000 C 52.820 34.440,52.261 34.800,52.050 34.800 C 51.457 34.800,44.257 42.037,43.394 43.500 C 42.973 44.215,42.486 44.800,42.314 44.800 C 42.141 44.800,42.000 45.070,42.000 45.400 C 42.000 45.730,41.820 46.000,41.600 46.000 C 41.380 46.000,41.200 46.270,41.200 46.600 C 41.200 46.930,41.020 47.200,40.800 47.200 C 40.580 47.200,40.400 47.560,40.400 48.000 C 40.400 48.440,40.220 48.800,40.000 48.800 C 39.780 48.800,39.600 49.160,39.600 49.600 C 39.600 50.040,39.420 50.400,39.200 50.400 C 38.980 50.400,38.800 50.760,38.800 51.200 C 38.800 51.640,38.620 52.000,38.400 52.000 C 38.180 52.000,38.000 52.540,38.000 53.200 C 38.000 53.860,37.820 54.400,37.600 54.400 C 37.380 54.400,37.200 54.940,37.200 55.600 C 37.200 56.260,37.020 56.800,36.800 56.800 C 36.580 56.800,36.400 57.509,36.400 58.376 C 36.400 59.243,36.220 60.064,36.000 60.200 C 35.355 60.598,35.455 338.484,36.100 339.179 C 36.506 339.616,36.488 339.658,36.000 339.400 C 35.512 339.142,35.494 339.184,35.900 339.621 C 36.175 339.918,36.400 340.855,36.400 341.704 C 36.400 342.631,36.560 343.148,36.800 343.000 C 37.033 342.856,37.200 343.255,37.200 343.953 C 37.200 344.613,37.380 345.264,37.600 345.400 C 37.820 345.536,38.000 346.177,38.000 346.824 C 38.000 347.471,38.180 348.000,38.400 348.000 C 38.620 348.000,38.800 348.345,38.800 348.767 C 38.800 349.188,38.946 349.593,39.124 349.667 C 39.302 349.740,39.910 350.737,40.476 351.882 C 41.041 353.027,41.615 353.852,41.752 353.715 C 41.888 353.578,42.000 353.767,42.000 354.133 C 42.000 354.500,42.315 355.137,42.700 355.549 C 43.085 355.962,43.796 356.817,44.281 357.449 C 46.214 359.976,51.663 365.200,52.364 365.200 C 52.604 365.200,52.800 365.380,52.800 365.600 C 52.800 365.820,53.036 366.000,53.325 366.000 C 53.613 366.000,54.205 366.315,54.640 366.700 C 55.075 367.085,55.694 367.459,56.016 367.530 C 56.337 367.602,56.660 367.827,56.733 368.030 C 56.807 368.234,57.212 368.400,57.633 368.400 C 58.055 368.400,58.400 368.580,58.400 368.800 C 58.400 369.020,58.760 369.200,59.200 369.200 C 59.640 369.200,60.000 369.380,60.000 369.600 C 60.000 369.820,60.540 370.000,61.200 370.000 C 61.860 370.000,62.400 370.180,62.400 370.400 C 62.400 370.620,62.850 370.800,63.400 370.800 C 63.950 370.800,64.400 370.961,64.400 371.158 C 64.400 371.607,66.808 371.997,71.196 372.261 C 73.064 372.373,74.684 372.585,74.796 372.732 C 75.232 373.306,312.941 372.552,312.587 371.979 C 312.511 371.855,313.562 371.525,314.924 371.244 C 317.425 370.728,318.541 370.347,320.444 369.362 C 321.018 369.064,321.603 368.936,321.744 369.077 C 321.885 369.218,322.000 369.123,322.000 368.867 C 322.000 368.610,322.270 368.400,322.600 368.400 C 322.930 368.400,323.200 368.220,323.200 368.000 C 323.200 367.780,323.560 367.600,324.000 367.600 C 324.440 367.600,324.800 367.420,324.800 367.200 C 324.800 366.980,325.070 366.800,325.400 366.800 C 325.730 366.800,326.000 366.620,326.000 366.400 C 326.000 366.180,326.371 366.000,326.824 366.000 C 327.277 366.000,327.536 365.820,327.400 365.600 C 327.264 365.380,327.394 365.200,327.688 365.200 C 327.983 365.200,328.483 364.840,328.800 364.400 C 329.117 363.960,329.536 363.600,329.731 363.600 C 329.925 363.600,330.619 363.150,331.273 362.600 C 331.927 362.050,332.348 361.600,332.210 361.600 C 332.072 361.600,332.444 361.150,333.038 360.600 C 333.631 360.050,334.271 359.600,334.458 359.600 C 334.646 359.600,334.800 359.330,334.800 359.000 C 334.800 358.670,334.980 358.400,335.200 358.400 C 335.420 358.400,335.600 358.119,335.600 357.776 C 335.600 357.433,335.780 357.264,336.000 357.400 C 336.220 357.536,336.400 357.367,336.400 357.024 C 336.400 356.681,336.580 356.400,336.800 356.400 C 337.020 356.400,337.200 356.145,337.200 355.833 C 337.200 355.522,337.335 355.207,337.500 355.133 C 338.581 354.653,341.600 348.960,341.600 347.402 C 341.600 346.851,341.780 346.400,342.000 346.400 C 342.220 346.400,342.400 346.051,342.400 345.624 C 342.400 345.197,342.580 344.736,342.800 344.600 C 343.020 344.464,343.200 343.744,343.200 343.000 C 343.200 342.256,343.380 341.536,343.600 341.400 C 343.820 341.264,344.000 340.173,344.000 338.976 C 344.000 337.779,344.177 336.800,344.393 336.800 C 344.647 336.800,344.789 322.548,344.796 296.400 C 344.804 269.554,344.672 256.000,344.405 256.000 C 344.183 256.000,337.747 262.318,330.101 270.040 C 322.455 277.762,314.874 285.367,313.254 286.940 C 311.633 288.513,309.203 290.950,307.854 292.355 C 303.789 296.589,292.576 307.723,291.192 308.900 L 289.899 310.000 295.531 310.000 C 300.660 310.000,302.850 310.331,303.600 311.221 C 303.710 311.352,304.107 311.571,304.482 311.710 C 306.589 312.486,309.055 317.857,308.711 320.916 C 308.347 324.140,304.891 329.200,303.053 329.200 C 302.694 329.200,302.400 329.380,302.400 329.600 C 302.400 329.862,294.561 330.003,279.700 330.009 C 257.787 330.017,256.965 330.045,256.000 330.800 C 255.450 331.230,254.469 331.586,253.820 331.591 C 252.995 331.597,252.767 331.727,253.060 332.020 C 253.994 332.954,301.134 332.322,303.200 331.348 C 305.320 330.348,308.800 327.377,308.800 326.566 C 308.800 326.255,308.936 326.000,309.102 326.000 C 309.530 326.000,310.276 324.085,310.582 322.200 C 311.121 318.890,309.635 319.200,324.947 319.200 C 340.564 319.200,339.600 318.963,339.600 322.800 C 339.600 324.252,339.797 325.637,340.038 325.878 C 340.532 326.372,340.288 336.560,339.685 340.600 C 339.028 345.004,336.853 349.988,333.892 353.879 C 332.961 355.101,331.840 356.579,331.400 357.163 C 330.528 358.321,328.739 360.006,326.122 362.135 C 323.666 364.133,316.480 367.492,312.478 368.513 L 309.000 369.400 190.600 369.400 C 66.418 369.400,70.538 369.455,65.000 367.738 C 62.413 366.936,56.431 364.111,55.400 363.205 C 54.960 362.818,54.391 362.434,54.137 362.351 C 52.329 361.762,45.140 353.259,43.649 349.946 C 41.332 344.801,40.386 342.090,40.437 340.748 C 40.457 340.227,40.278 338.270,40.040 336.400 C 39.503 332.192,39.470 326.290,39.980 325.780 C 40.190 325.570,40.415 324.049,40.480 322.400 L 40.600 319.400 55.300 319.295 L 70.000 319.190 70.006 320.695 C 70.022 324.742,73.094 328.968,77.600 331.139 L 79.800 332.200 132.998 332.310 C 182.874 332.413,186.228 332.377,186.698 331.733 C 188.020 329.925,190.340 330.000,133.000 330.000 C 97.133 330.000,78.800 329.865,78.800 329.600 C 78.800 329.380,78.480 329.200,78.088 329.200 C 77.697 329.200,77.117 328.840,76.800 328.400 C 76.483 327.960,76.014 327.600,75.758 327.600 C 75.279 327.600,74.614 326.717,73.208 324.213 C 72.328 322.647,72.029 317.076,72.800 316.600 C 73.020 316.464,73.200 316.066,73.200 315.716 C 73.200 314.944,77.326 310.800,78.094 310.800 C 78.394 310.800,78.819 310.621,79.039 310.401 C 79.299 310.141,99.632 309.968,137.619 309.901 L 195.800 309.800 196.171 308.300 C 196.374 307.475,196.689 306.800,196.871 306.800 C 197.052 306.800,197.200 306.361,197.200 305.824 C 197.200 305.287,197.380 304.736,197.600 304.600 C 197.820 304.464,198.000 304.003,198.000 303.576 C 198.000 303.149,198.180 302.800,198.400 302.800 C 198.620 302.800,198.800 302.440,198.800 302.000 C 198.800 301.560,198.980 301.200,199.200 301.200 C 199.420 301.200,199.600 300.665,199.600 300.012 C 199.600 298.931,200.741 296.361,201.638 295.420 C 201.837 295.211,202.000 294.721,202.000 294.332 C 202.000 293.943,202.360 292.983,202.800 292.200 C 203.240 291.417,203.600 290.601,203.600 290.388 C 203.600 290.139,181.415 290.000,141.726 290.000 C 80.783 290.000,79.828 289.988,78.209 289.204 C 73.414 286.883,71.037 280.960,73.008 276.243 C 73.720 274.539,77.243 270.800,78.137 270.800 C 78.476 270.800,78.864 270.620,79.000 270.400 C 79.163 270.136,101.799 270.000,145.610 270.000 L 211.972 270.000 212.458 269.100 C 212.726 268.605,213.003 267.684,213.074 267.054 C 213.145 266.424,213.595 265.074,214.074 264.054 C 214.552 263.034,215.236 261.335,215.592 260.277 C 216.090 258.800,217.148 257.430,220.144 254.377 L 224.046 250.400 153.323 250.390 C 83.857 250.381,80.565 250.325,78.000 249.113 C 76.649 248.475,74.000 245.962,74.000 245.319 C 74.000 245.033,73.820 244.800,73.600 244.800 C 73.380 244.800,73.200 244.451,73.200 244.024 C 73.200 243.597,73.020 243.136,72.800 243.000 C 72.580 242.864,72.400 241.514,72.400 240.000 C 72.400 238.486,72.580 237.136,72.800 237.000 C 73.020 236.864,73.200 236.403,73.200 235.976 C 73.200 235.549,73.380 235.200,73.600 235.200 C 73.820 235.200,74.000 234.964,74.000 234.675 C 74.000 234.087,75.640 232.458,77.277 231.421 C 80.170 229.587,78.129 229.629,164.003 229.614 L 245.006 229.600 254.597 220.003 L 264.189 210.405 172.794 210.267 C 122.527 210.190,80.751 209.993,79.958 209.827 C 78.379 209.497,74.929 207.069,74.236 205.800 C 73.996 205.360,73.709 204.910,73.598 204.800 C 71.008 202.238,72.677 194.923,76.519 191.995 C 79.833 189.469,73.926 189.600,184.355 189.600 L 285.131 189.600 294.053 180.600 C 298.960 175.650,303.285 171.600,303.664 171.600 C 304.368 171.600,366.000 232.916,366.000 233.616 C 366.000 234.581,371.490 229.162,372.064 227.630 C 372.269 227.082,365.560 220.159,341.764 196.364 C 324.954 179.555,311.200 165.622,311.200 165.401 C 311.201 164.919,312.378 163.526,315.935 159.800 C 317.406 158.260,319.367 156.094,320.294 154.986 C 321.654 153.361,322.426 152.831,324.290 152.239 C 325.560 151.836,327.079 151.332,327.664 151.119 C 328.367 150.864,328.990 150.874,329.502 151.148 C 330.044 151.438,330.408 151.432,330.712 151.128 C 330.963 150.877,331.453 150.826,331.873 151.008 C 332.273 151.181,332.906 151.286,333.279 151.240 C 334.842 151.049,338.628 153.368,341.251 156.123 C 342.789 157.739,344.091 158.791,344.351 158.630 C 344.949 158.261,344.998 63.200,344.400 63.200 C 344.180 63.200,344.000 62.221,344.000 61.024 C 344.000 59.827,343.820 58.736,343.600 58.600 C 343.380 58.464,343.200 57.744,343.200 57.000 C 343.200 56.256,343.020 55.536,342.800 55.400 C 342.580 55.264,342.400 54.803,342.400 54.376 C 342.400 53.949,342.220 53.600,342.000 53.600 C 341.780 53.600,341.600 53.156,341.600 52.614 C 341.600 50.878,338.244 44.855,336.328 43.153 C 335.928 42.797,335.600 42.307,335.600 42.064 C 335.600 41.554,330.444 36.400,329.933 36.400 C 329.746 36.400,329.028 35.860,328.337 35.200 C 327.646 34.540,326.838 34.000,326.541 34.000 C 326.243 34.000,326.000 33.820,326.000 33.600 C 326.000 33.380,325.730 33.200,325.400 33.200 C 325.070 33.200,324.800 33.020,324.800 32.800 C 324.800 32.580,324.530 32.400,324.200 32.400 C 323.870 32.400,323.600 32.220,323.600 32.000 C 323.600 31.780,323.347 31.600,323.038 31.600 C 322.553 31.600,321.280 31.048,318.305 29.550 C 317.923 29.357,317.259 29.200,316.829 29.200 C 316.399 29.200,315.936 29.020,315.800 28.800 C 315.664 28.580,314.969 28.400,314.256 28.400 C 313.543 28.400,312.735 28.175,312.460 27.900 C 311.995 27.435,82.818 27.049,71.403 27.494 M302.548 70.993 C 310.656 74.829,310.119 85.875,301.651 89.433 C 299.763 90.226,82.147 90.292,79.545 89.500 C 72.145 87.248,70.273 77.701,76.206 72.478 C 79.088 69.941,72.299 70.086,190.725 70.041 L 300.450 70.000 302.548 70.993 M301.572 110.498 C 302.357 110.772,303.090 111.095,303.200 111.217 C 303.310 111.339,303.984 111.847,304.698 112.345 C 310.622 116.483,308.841 126.981,301.799 129.431 C 299.659 130.176,81.775 130.287,79.560 129.544 C 70.674 126.565,70.423 113.308,79.200 110.552 C 81.358 109.875,299.631 109.821,301.572 110.498 M303.404 151.400 C 310.307 155.668,309.979 165.236,302.800 169.055 C 300.669 170.189,80.179 170.226,78.106 169.093 C 71.721 165.603,70.572 157.822,75.700 152.795 C 78.740 149.815,68.434 150.053,191.031 150.130 L 301.463 150.200 303.404 151.400 M246.000 287.725 C 246.000 287.794,246.585 288.379,247.300 289.025 L 248.600 290.200 247.425 288.900 C 246.330 287.688,246.000 287.416,246.000 287.725 " stroke="none" fill="#e2f2fa" fill-rule="evenodd"></path><path id="path2" d="M299.692 176.108 C 297.661 178.147,296.000 180.007,296.000 180.241 C 296.000 180.475,304.415 189.044,314.700 199.283 C 324.985 209.522,338.883 223.412,345.585 230.149 C 352.286 236.887,357.866 242.400,357.985 242.400 C 358.316 242.399,360.400 240.541,360.400 240.246 C 360.400 239.831,365.544 234.800,365.969 234.800 C 366.180 234.800,366.481 234.592,366.638 234.338 C 366.824 234.038,366.747 233.986,366.418 234.189 C 366.075 234.401,355.941 224.532,334.853 203.450 C 317.770 186.373,303.701 172.400,303.589 172.400 C 303.476 172.400,301.723 174.068,299.692 176.108 M201.847 297.523 C 201.693 297.774,201.236 298.928,200.832 300.089 C 199.192 304.800,196.748 310.400,196.332 310.400 C 196.149 310.400,196.000 310.665,196.000 310.988 C 196.000 311.311,195.651 312.196,195.225 312.955 C 194.799 313.714,194.170 315.280,193.827 316.436 C 193.483 317.591,192.956 318.913,192.654 319.374 C 192.352 319.835,191.968 320.839,191.801 321.606 C 191.634 322.373,191.078 323.810,190.565 324.800 C 190.052 325.790,189.369 327.590,189.048 328.800 C 188.239 331.844,187.659 333.531,186.780 335.400 C 186.056 336.939,185.377 338.623,183.391 343.800 C 180.484 351.383,179.996 352.564,179.617 352.943 C 179.388 353.172,179.200 353.797,179.200 354.331 C 179.200 354.864,178.660 356.364,178.000 357.662 C 176.259 361.089,176.364 361.349,179.011 360.178 C 180.228 359.640,181.482 359.200,181.799 359.200 C 182.116 359.200,183.017 358.840,183.800 358.400 C 184.583 357.960,185.457 357.600,185.741 357.600 C 186.026 357.600,187.373 357.060,188.735 356.400 C 190.098 355.740,191.435 355.200,191.706 355.200 C 191.978 355.200,193.341 354.660,194.736 354.000 C 196.131 353.340,197.532 352.800,197.850 352.800 C 198.168 352.800,198.861 352.516,199.390 352.170 C 199.919 351.823,201.488 351.125,202.876 350.618 C 204.264 350.111,206.930 349.022,208.800 348.199 C 210.670 347.376,212.920 346.489,213.800 346.227 C 214.680 345.966,216.120 345.423,217.000 345.021 C 217.880 344.618,218.960 344.165,219.400 344.014 C 219.840 343.862,221.010 343.347,222.000 342.868 C 222.990 342.389,224.090 341.998,224.444 341.999 C 224.798 342.000,226.148 341.462,227.444 340.805 C 228.740 340.148,230.084 339.608,230.432 339.605 C 230.780 339.602,231.940 339.157,233.011 338.614 C 234.082 338.072,235.473 337.516,236.104 337.377 C 236.734 337.239,237.963 336.720,238.835 336.225 L 240.420 335.324 231.360 326.562 C 226.377 321.743,221.017 316.472,219.450 314.850 C 206.695 301.644,202.097 297.119,201.847 297.523 " stroke="none" fill="#263b44" fill-rule="evenodd"></path><path id="path3" d="M215.525 263.905 C 215.154 264.727,214.615 266.120,214.327 267.000 C 214.040 267.880,213.689 268.690,213.548 268.800 C 213.408 268.910,213.011 270.103,212.667 271.451 C 212.323 272.798,211.672 274.559,211.221 275.363 C 210.769 276.167,210.400 277.138,210.400 277.522 C 210.400 277.906,209.866 279.296,209.213 280.610 C 208.559 281.925,208.019 283.298,208.013 283.662 C 208.006 284.026,207.655 285.016,207.233 285.862 C 206.429 287.474,205.948 288.670,205.777 289.486 C 205.721 289.753,205.298 290.500,204.838 291.147 C 204.377 291.794,204.000 292.703,204.000 293.167 C 204.000 294.068,203.259 295.614,202.600 296.088 C 202.099 296.448,204.876 299.337,225.095 319.481 C 236.952 331.293,241.417 335.502,241.918 335.339 C 243.207 334.919,246.200 333.400,246.334 333.098 C 246.408 332.931,246.635 332.898,246.839 333.024 C 247.044 333.151,248.243 332.765,249.505 332.167 C 250.767 331.569,252.160 331.016,252.600 330.937 C 253.884 330.706,255.600 329.931,255.600 329.581 C 255.600 329.131,257.960 328.000,258.900 328.000 C 259.327 328.000,260.154 327.665,260.738 327.256 C 261.322 326.846,262.520 326.290,263.400 326.021 C 264.280 325.751,265.720 325.213,266.600 324.826 C 267.480 324.439,269.771 323.509,271.691 322.761 C 274.781 321.556,276.545 320.355,274.400 320.916 C 273.584 321.129,273.291 320.638,273.980 320.212 C 274.399 319.953,272.966 317.657,271.422 316.113 C 269.780 314.471,262.808 314.983,262.799 316.746 C 262.797 317.029,259.486 318.757,256.954 319.797 C 252.221 321.740,246.553 322.364,243.200 321.309 C 241.827 320.878,239.180 320.178,237.200 319.723 C 236.130 319.477,231.489 316.800,231.267 316.300 C 231.193 316.135,230.859 316.000,230.524 316.000 C 230.189 316.000,229.233 315.460,228.400 314.800 C 227.567 314.140,226.600 313.600,226.252 313.600 C 225.903 313.600,225.315 313.105,224.945 312.500 C 223.849 310.709,222.218 308.215,222.001 308.000 C 221.891 307.890,221.463 307.170,221.051 306.400 C 220.639 305.630,219.819 304.100,219.229 303.000 C 214.865 294.868,215.131 286.249,220.046 276.510 C 223.894 268.883,223.471 265.843,218.300 263.980 C 217.475 263.683,216.800 263.205,216.800 262.920 C 216.800 261.944,216.201 262.407,215.525 263.905 " stroke="none" fill="#d2b06f" fill-rule="evenodd"></path><path id="path4" d="M79.600 70.821 C 79.170 71.114,79.454 71.154,80.600 70.962 C 82.584 70.630,82.904 70.398,81.367 70.406 C 80.725 70.409,79.930 70.596,79.600 70.821 M301.042 70.968 C 301.946 71.250,302.891 71.609,303.142 71.764 C 303.394 71.920,303.600 71.937,303.600 71.803 C 303.600 71.444,300.943 70.396,300.113 70.427 C 299.721 70.441,300.139 70.685,301.042 70.968 M76.456 72.645 C 71.144 77.191,71.742 84.417,77.752 88.328 L 79.400 89.400 114.800 89.430 L 150.200 89.461 115.000 89.208 C 76.398 88.930,79.333 89.141,76.315 86.431 C 72.348 82.870,72.596 75.943,76.800 72.868 C 78.817 71.393,79.020 71.200,78.552 71.200 C 78.328 71.200,77.384 71.850,76.456 72.645 M304.000 72.125 C 304.000 72.194,304.585 72.779,305.300 73.425 L 306.600 74.600 305.425 73.300 C 304.330 72.088,304.000 71.816,304.000 72.125 M306.686 75.606 C 306.802 76.050,307.055 76.510,307.248 76.630 C 307.442 76.749,307.625 77.422,307.654 78.124 C 307.697 79.114,307.749 79.192,307.886 78.471 C 307.984 77.960,307.771 76.925,307.413 76.171 C 306.685 74.636,306.368 74.390,306.686 75.606 M307.660 81.488 C 307.596 82.862,306.470 85.163,305.061 86.800 L 304.200 87.800 305.248 86.879 C 306.753 85.557,308.099 82.748,307.892 81.359 L 307.720 80.200 307.660 81.488 M302.976 88.187 C 302.549 88.510,301.339 88.894,300.287 89.040 C 299.234 89.187,298.461 89.394,298.568 89.501 C 298.981 89.914,302.248 89.133,303.200 88.394 C 303.750 87.967,304.099 87.614,303.976 87.609 C 303.854 87.604,303.404 87.864,302.976 88.187 M211.300 110.300 C 227.305 110.358,253.495 110.358,269.500 110.300 C 285.505 110.242,272.410 110.195,240.400 110.195 C 208.390 110.195,195.295 110.242,211.300 110.300 M79.046 110.989 C 72.390 113.361,70.791 122.397,76.189 127.137 C 79.048 129.647,78.680 129.608,98.749 129.516 L 117.000 129.433 98.400 129.216 C 78.154 128.981,79.144 129.100,76.590 126.600 C 74.073 124.136,73.600 123.101,73.600 120.050 C 73.600 115.018,75.751 112.306,80.800 110.971 C 82.017 110.649,82.276 110.485,81.600 110.465 C 81.050 110.449,79.901 110.684,79.046 110.989 M305.641 114.000 C 306.363 114.990,307.010 115.875,307.077 115.967 C 307.145 116.058,307.200 115.953,307.200 115.733 C 307.200 115.513,306.554 114.628,305.764 113.767 L 304.327 112.200 305.641 114.000 M307.552 117.687 C 307.737 118.798,307.793 118.855,307.919 118.054 C 308.001 117.533,307.903 116.943,307.701 116.741 C 307.479 116.519,307.421 116.893,307.552 117.687 M307.654 121.688 C 307.586 123.052,306.261 125.523,304.977 126.681 C 304.440 127.165,304.000 127.694,304.000 127.856 C 304.000 128.017,304.518 127.653,305.152 127.046 C 306.700 125.563,308.112 122.730,307.889 121.554 C 307.720 120.660,307.706 120.668,307.654 121.688 M302.639 128.300 C 302.477 128.465,301.592 128.807,300.672 129.061 C 299.597 129.357,299.326 129.535,299.913 129.561 C 300.862 129.602,303.600 128.606,303.600 128.220 C 303.600 127.899,302.982 127.951,302.639 128.300 M81.954 150.414 C 78.608 150.805,73.608 153.741,74.599 154.733 C 74.720 154.853,75.100 154.550,75.444 154.059 C 75.787 153.568,76.818 152.679,77.734 152.083 L 79.400 151.000 131.800 150.703 C 160.620 150.539,210.470 150.449,242.579 150.503 C 274.687 150.556,300.427 150.486,299.779 150.347 C 298.070 149.981,85.102 150.046,81.954 150.414 M305.238 153.377 C 305.588 153.830,306.173 154.645,306.538 155.189 C 306.902 155.733,307.200 155.988,307.200 155.756 C 307.200 155.523,306.615 154.708,305.900 153.943 C 305.185 153.179,304.887 152.924,305.238 153.377 M73.445 156.487 C 71.507 160.956,73.871 166.535,78.655 168.784 C 80.442 169.624,300.153 170.127,301.462 169.294 C 301.716 169.132,252.396 169.052,191.862 169.116 C 104.881 169.207,81.464 169.127,80.200 168.733 C 78.088 168.076,75.213 166.121,75.191 165.329 C 75.186 165.148,74.830 164.550,74.400 164.000 C 73.487 162.833,73.211 156.596,74.060 156.313 C 74.313 156.229,74.423 155.899,74.305 155.580 C 74.164 155.200,73.867 155.514,73.445 156.487 M307.552 157.687 C 307.737 158.798,307.793 158.855,307.919 158.054 C 308.001 157.533,307.903 156.943,307.701 156.741 C 307.479 156.519,307.421 156.893,307.552 157.687 M307.654 161.916 C 307.561 163.480,306.076 165.904,304.504 167.055 C 302.374 168.615,302.176 168.800,302.648 168.800 C 304.303 168.800,308.218 163.613,307.878 161.869 C 307.713 161.020,307.708 161.021,307.654 161.916 M294.365 180.811 L 285.400 190.021 220.400 190.068 C 184.650 190.094,138.390 190.243,117.600 190.401 C 92.701 190.590,114.818 190.654,182.400 190.590 L 285.000 190.492 294.291 181.146 L 303.583 171.800 334.791 202.999 C 351.956 220.159,366.000 234.063,366.000 233.897 C 366.000 233.497,304.042 171.600,303.642 171.600 C 303.470 171.600,299.296 175.745,294.365 180.811 M77.059 192.044 C 76.026 192.728,74.999 193.628,74.776 194.044 C 74.189 195.141,74.468 194.992,76.352 193.200 C 77.277 192.320,78.285 191.600,78.593 191.600 C 78.901 191.600,79.264 191.420,79.400 191.200 C 79.855 190.464,78.954 190.789,77.059 192.044 M73.405 196.526 C 71.955 199.997,73.314 205.171,76.268 207.424 C 79.328 209.759,72.316 209.600,172.364 209.600 C 235.309 209.600,264.434 209.731,264.609 210.014 C 264.855 210.413,246.433 229.094,245.002 229.895 C 244.615 230.112,244.468 230.395,244.678 230.524 C 244.887 230.654,249.774 226.057,255.538 220.309 C 262.859 213.010,265.865 209.761,265.510 209.536 C 265.229 209.358,223.482 209.209,172.738 209.206 L 80.476 209.200 78.738 208.300 C 76.801 207.297,74.970 205.565,74.594 204.380 C 74.457 203.951,74.178 203.600,73.973 203.600 C 73.414 203.600,73.506 196.654,74.073 196.087 C 74.334 195.826,74.426 195.493,74.279 195.345 C 74.131 195.198,73.738 195.729,73.405 196.526 M382.800 198.197 C 382.800 198.760,383.148 199.410,383.600 199.693 C 384.040 199.968,384.400 200.509,384.400 200.896 C 384.400 201.283,384.580 201.600,384.800 201.600 C 385.020 201.600,385.200 202.140,385.200 202.800 C 385.200 203.460,385.400 204.000,385.645 204.000 C 385.951 204.000,386.017 204.845,385.858 206.700 C 385.479 211.095,385.144 212.522,384.145 213.993 C 383.015 215.658,382.974 216.000,383.902 216.000 C 384.321 216.000,384.817 215.474,385.129 214.700 C 385.417 213.985,385.821 213.087,386.026 212.705 C 386.232 212.323,386.400 211.556,386.400 211.000 C 386.400 210.444,386.623 209.632,386.896 209.195 C 387.291 208.562,387.291 208.238,386.896 207.605 C 386.623 207.168,386.400 205.672,386.400 204.281 C 386.400 202.304,386.225 201.563,385.600 200.892 C 385.160 200.420,384.800 199.756,384.800 199.417 C 384.800 199.078,384.641 198.800,384.447 198.800 C 384.252 198.800,383.999 198.440,383.884 198.000 C 383.587 196.864,382.800 197.007,382.800 198.197 M78.789 230.932 C 69.806 235.086,71.301 247.583,81.013 249.534 C 82.727 249.878,101.829 250.000,154.067 250.000 C 192.970 250.000,224.800 250.073,224.800 250.162 C 224.800 250.251,222.902 252.252,220.582 254.609 C 218.262 256.965,216.448 259.097,216.551 259.347 C 216.677 259.653,216.747 259.638,216.768 259.300 C 216.839 258.175,218.009 259.189,226.628 267.850 C 231.581 272.827,235.707 276.826,235.797 276.736 C 235.887 276.647,233.224 273.815,229.880 270.443 C 226.536 267.072,222.479 262.895,220.865 261.162 L 217.930 258.010 221.433 254.434 C 225.355 250.429,225.901 249.686,225.122 249.401 C 224.835 249.296,192.020 249.163,152.200 249.105 C 83.384 249.005,79.737 248.964,78.521 248.281 C 76.873 247.355,74.400 244.882,74.400 244.160 C 74.400 243.852,74.220 243.600,74.000 243.600 C 72.729 243.600,73.586 236.623,75.102 234.634 C 78.049 230.766,75.753 231.029,108.600 230.795 L 137.400 230.590 108.600 230.527 C 87.355 230.481,79.535 230.588,78.789 230.932 M316.270 282.395 C 299.444 299.240,288.919 310.061,289.253 310.175 C 290.137 310.475,301.242 310.627,300.488 310.328 C 300.109 310.179,297.460 310.044,294.601 310.028 L 289.402 310.000 316.600 282.800 C 331.559 267.840,344.023 255.600,344.299 255.600 C 344.575 255.600,344.800 255.420,344.800 255.200 C 344.800 253.990,341.504 257.132,316.270 282.395 M215.892 260.642 C 215.731 260.802,215.605 261.308,215.612 261.767 C 215.623 262.536,215.656 262.545,216.040 261.885 C 216.488 261.116,216.373 260.160,215.892 260.642 M78.789 270.932 C 69.809 275.084,71.300 287.773,80.978 289.562 C 82.530 289.849,102.839 289.967,144.133 289.928 L 205.000 289.871 151.600 289.570 C 85.011 289.194,80.183 289.108,78.600 288.273 C 70.909 284.216,72.193 273.063,80.600 270.895 C 82.045 270.523,82.084 270.482,81.000 270.474 C 80.340 270.469,79.345 270.675,78.789 270.932 M241.556 276.330 C 239.923 277.979,238.650 278.948,238.227 278.865 C 237.850 278.791,238.393 279.511,239.433 280.465 C 240.472 281.419,241.475 282.155,241.662 282.100 C 241.848 282.045,241.955 282.225,241.900 282.500 C 241.845 282.775,242.025 282.955,242.300 282.900 C 242.575 282.845,242.755 283.025,242.700 283.300 C 242.645 283.575,242.825 283.755,243.100 283.700 C 243.375 283.645,243.555 283.825,243.500 284.100 C 243.445 284.375,243.625 284.555,243.900 284.500 C 244.175 284.445,244.355 284.625,244.300 284.900 C 244.245 285.175,244.425 285.355,244.700 285.300 C 244.975 285.245,245.155 285.425,245.100 285.700 C 245.045 285.975,245.225 286.155,245.500 286.100 C 245.775 286.045,245.955 286.225,245.900 286.500 C 245.845 286.775,246.025 286.955,246.300 286.900 C 246.575 286.845,246.755 287.025,246.700 287.300 C 246.645 287.575,246.825 287.755,247.100 287.700 C 247.375 287.645,247.555 287.825,247.500 288.100 C 247.445 288.375,247.625 288.555,247.900 288.500 C 248.175 288.445,248.355 288.625,248.300 288.900 C 248.245 289.175,248.425 289.355,248.700 289.300 C 248.975 289.245,249.155 289.425,249.100 289.700 C 249.045 289.975,249.225 290.155,249.500 290.100 C 249.775 290.045,249.955 290.225,249.900 290.500 C 249.845 290.775,250.025 290.955,250.300 290.900 C 250.575 290.845,250.755 291.025,250.700 291.300 C 250.645 291.575,250.825 291.755,251.100 291.700 C 251.375 291.645,251.555 291.825,251.500 292.100 C 251.445 292.375,251.625 292.555,251.900 292.500 C 252.175 292.445,252.355 292.625,252.300 292.900 C 252.245 293.175,252.438 293.351,252.730 293.290 C 253.021 293.230,253.162 293.338,253.042 293.532 C 252.922 293.725,258.584 299.707,265.624 306.824 C 272.663 313.941,278.337 319.988,278.232 320.262 C 278.115 320.567,278.265 320.673,278.620 320.537 C 279.575 320.170,279.568 320.162,269.036 309.636 C 262.008 302.612,258.944 299.289,259.107 298.866 C 259.236 298.530,260.501 297.117,261.919 295.727 C 263.337 294.337,264.327 293.200,264.120 293.200 C 263.747 293.200,260.435 295.851,259.945 296.543 C 259.804 296.741,259.453 296.757,259.165 296.578 C 258.095 295.917,244.476 282.491,242.800 280.445 C 242.235 279.755,241.408 279.219,240.900 279.212 C 239.669 279.196,239.703 279.125,242.200 276.547 C 243.410 275.298,244.400 274.124,244.400 273.938 C 244.400 273.451,244.445 273.413,241.556 276.330 M201.086 297.496 C 200.734 298.323,200.345 299.450,200.221 300.000 L 199.996 301.000 200.438 300.000 C 201.687 297.177,202.020 296.287,201.880 296.146 C 201.795 296.061,201.437 296.669,201.086 297.496 M199.072 302.619 C 198.132 304.589,198.264 304.924,199.247 303.062 C 199.693 302.216,199.987 301.454,199.901 301.367 C 199.814 301.281,199.441 301.844,199.072 302.619 M196.200 309.600 C 196.037 309.864,176.669 310.000,139.396 310.000 C 98.832 310.000,82.240 310.128,80.720 310.453 C 71.176 312.490,69.950 325.188,78.919 329.111 C 79.730 329.466,83.192 329.578,91.519 329.522 L 103.000 329.443 91.400 329.222 C 82.095 329.044,79.602 328.881,78.800 328.400 C 70.562 323.457,72.005 312.889,81.200 310.824 C 82.365 310.562,102.910 310.416,139.451 310.410 C 189.134 310.401,195.962 310.328,196.400 309.800 C 196.674 309.470,196.797 309.200,196.673 309.200 C 196.549 309.200,196.336 309.380,196.200 309.600 M302.600 311.463 C 303.260 311.810,304.351 312.567,305.023 313.147 C 305.696 313.726,305.454 313.435,304.485 312.500 C 303.516 311.565,302.425 310.807,302.061 310.816 C 301.659 310.826,301.869 311.079,302.600 311.463 M307.130 316.382 C 307.498 317.251,307.860 317.791,307.933 317.581 C 308.100 317.106,307.104 314.800,306.732 314.800 C 306.582 314.800,306.761 315.512,307.130 316.382 M307.646 322.120 C 307.621 322.516,307.325 323.371,306.990 324.020 C 306.654 324.669,306.469 325.200,306.579 325.200 C 307.010 325.200,308.038 322.709,307.871 322.073 C 307.714 321.481,307.687 321.487,307.646 322.120 M304.517 327.156 C 303.561 328.021,302.091 328.871,301.117 329.123 L 299.400 329.566 300.996 329.347 C 302.551 329.133,306.400 326.726,306.400 325.966 C 306.400 325.454,306.393 325.459,304.517 327.156 M161.100 329.900 C 186.025 329.998,189.020 330.122,187.600 331.000 C 187.380 331.136,187.200 331.603,187.200 332.037 C 187.200 332.471,186.750 333.715,186.200 334.800 C 185.650 335.885,185.208 336.914,185.219 337.087 C 185.260 337.778,187.564 332.939,187.581 332.124 C 187.592 331.642,187.780 331.136,188.000 331.000 C 190.171 329.658,188.938 329.598,161.300 329.697 L 134.200 329.794 161.100 329.900 M255.862 329.900 C 255.693 330.172,271.496 330.168,291.600 329.890 C 295.890 329.831,289.646 329.741,277.724 329.691 C 265.802 329.641,255.964 329.735,255.862 329.900 M238.800 336.800 C 238.030 337.222,237.130 337.575,236.800 337.584 C 236.003 337.608,231.251 339.930,231.918 339.969 C 232.203 339.986,233.282 339.550,234.315 339.000 C 235.348 338.450,236.427 338.000,236.713 338.000 C 237.306 338.000,240.400 336.483,240.400 336.192 C 240.400 335.928,240.378 335.936,238.800 336.800 M184.535 338.807 C 183.911 340.710,182.422 344.358,181.709 345.728 C 181.386 346.348,181.216 346.950,181.332 347.065 C 181.586 347.319,182.800 345.050,182.800 344.320 C 182.800 344.034,183.348 342.644,184.016 341.230 C 184.685 339.817,185.178 338.380,185.112 338.037 C 185.046 337.694,184.786 338.040,184.535 338.807 M229.600 340.400 C 229.067 340.745,229.067 340.788,229.600 340.788 C 229.930 340.788,230.470 340.613,230.800 340.400 C 231.333 340.055,231.333 340.012,230.800 340.012 C 230.470 340.012,229.930 340.187,229.600 340.400 M225.200 342.146 C 224.430 342.400,223.350 342.863,222.800 343.175 C 222.250 343.486,220.630 344.177,219.200 344.710 C 213.994 346.648,212.969 347.060,211.283 347.895 C 210.338 348.362,209.003 348.867,208.316 349.018 C 207.629 349.169,206.512 349.631,205.833 350.045 C 205.155 350.459,204.330 350.799,204.000 350.802 C 203.670 350.805,202.410 351.291,201.200 351.881 C 199.990 352.471,198.370 353.182,197.600 353.461 L 196.200 353.969 197.484 353.756 C 198.191 353.639,200.792 352.656,203.265 351.572 C 205.737 350.487,207.920 349.600,208.116 349.600 C 208.311 349.600,209.637 349.060,211.063 348.400 C 212.489 347.740,213.819 347.200,214.018 347.200 C 214.217 347.200,215.559 346.660,217.000 346.000 C 218.441 345.340,219.841 344.798,220.110 344.795 C 220.380 344.792,221.660 344.252,222.956 343.595 C 224.252 342.938,225.637 342.400,226.033 342.400 C 226.429 342.400,226.864 342.220,227.000 342.000 C 227.297 341.520,227.032 341.541,225.200 342.146 M180.600 348.400 C 180.450 348.873,180.417 349.350,180.527 349.460 C 180.637 349.570,180.850 349.273,181.000 348.800 C 181.150 348.327,181.183 347.850,181.073 347.740 C 180.963 347.630,180.750 347.927,180.600 348.400 M179.400 351.600 C 179.038 352.301,178.826 352.959,178.929 353.062 C 179.032 353.165,179.406 352.669,179.760 351.960 C 180.114 351.251,180.326 350.593,180.231 350.498 C 180.136 350.403,179.762 350.899,179.400 351.600 M178.273 354.153 C 178.123 354.545,178.011 355.166,178.025 355.533 C 178.042 355.975,178.181 355.874,178.437 355.234 C 178.649 354.703,178.761 354.082,178.685 353.854 C 178.609 353.627,178.424 353.761,178.273 354.153 M194.980 354.361 C 194.771 354.559,193.790 354.994,192.800 355.327 C 190.197 356.203,186.486 357.992,187.262 357.996 C 187.626 357.998,188.616 357.658,189.462 357.239 C 190.308 356.821,191.826 356.187,192.835 355.831 C 194.702 355.172,196.543 354.036,195.780 354.013 C 195.549 354.006,195.189 354.162,194.980 354.361 M177.029 357.543 C 176.683 358.212,176.400 358.987,176.400 359.265 C 176.400 359.542,176.757 359.068,177.194 358.212 C 177.631 357.355,177.914 356.581,177.823 356.490 C 177.733 356.400,177.376 356.873,177.029 357.543 M184.251 358.654 C 183.619 358.997,182.099 359.622,180.873 360.044 C 179.646 360.466,178.273 361.051,177.821 361.343 C 176.720 362.057,176.037 361.760,176.297 360.681 C 176.461 359.998,176.399 359.903,176.017 360.258 C 175.284 360.939,175.685 362.210,176.612 362.146 C 178.030 362.049,187.211 358.023,186.000 358.029 C 185.670 358.031,184.883 358.312,184.251 358.654 " stroke="none" fill="#81bfdc" fill-rule="evenodd"></path><path id="path5" d="M227.826 271.517 C 227.701 271.912,226.969 272.902,226.199 273.718 C 225.430 274.534,224.800 275.456,224.800 275.768 C 224.800 276.079,224.648 276.393,224.462 276.467 C 224.276 276.540,223.401 277.680,222.518 279.000 C 218.476 285.038,217.255 292.778,219.204 300.014 C 219.445 300.911,219.588 301.967,219.521 302.361 C 219.455 302.755,219.640 303.366,219.932 303.719 C 220.225 304.072,220.510 304.594,220.566 304.880 C 220.688 305.508,221.700 307.720,221.993 308.000 C 222.213 308.210,223.803 310.634,224.945 312.500 C 225.315 313.105,225.903 313.600,226.252 313.600 C 226.600 313.600,227.567 314.140,228.400 314.800 C 229.233 315.460,230.204 316.000,230.558 316.000 C 230.911 316.000,231.200 316.180,231.200 316.400 C 231.200 316.620,231.413 316.800,231.674 316.800 C 231.934 316.800,232.921 317.175,233.867 317.632 C 234.813 318.090,236.289 318.517,237.149 318.581 C 238.008 318.645,238.905 318.818,239.143 318.965 C 242.091 320.787,256.143 318.284,258.000 315.607 C 258.110 315.448,258.847 315.014,259.639 314.643 C 260.430 314.271,262.050 313.101,263.239 312.042 C 264.427 310.983,265.805 309.988,266.300 309.831 C 267.815 309.351,267.754 309.284,248.263 289.765 C 229.952 271.427,228.318 269.968,227.826 271.517 " stroke="none" fill="#e2d1a5" fill-rule="evenodd"></path><path id="path6" d="M135.700 70.300 C 166.005 70.357,215.595 70.357,245.900 70.300 C 276.205 70.243,251.410 70.197,190.800 70.197 C 130.190 70.197,105.395 70.243,135.700 70.300 M78.200 71.026 C 76.901 71.698,74.000 74.362,74.000 74.882 C 74.000 75.058,74.635 74.499,75.411 73.640 C 76.187 72.781,77.582 71.710,78.511 71.259 C 79.440 70.809,80.020 70.432,79.800 70.422 C 79.580 70.413,78.860 70.684,78.200 71.026 M72.509 80.000 C 72.509 80.990,72.587 81.395,72.682 80.900 C 72.778 80.405,72.778 79.595,72.682 79.100 C 72.587 78.605,72.509 79.010,72.509 80.000 M308.109 80.000 C 308.109 80.990,308.187 81.395,308.282 80.900 C 308.378 80.405,308.378 79.595,308.282 79.100 C 308.187 78.605,308.109 79.010,308.109 80.000 M73.962 85.129 C 74.508 86.150,77.979 89.207,78.556 89.176 C 78.800 89.164,78.640 88.939,78.200 88.676 C 77.760 88.414,76.531 87.332,75.470 86.270 C 74.408 85.209,73.730 84.695,73.962 85.129 M80.138 89.694 C 80.742 90.078,300.458 90.078,301.062 89.694 C 301.316 89.532,251.608 89.400,190.600 89.400 C 129.592 89.400,79.884 89.532,80.138 89.694 M80.138 110.306 C 79.723 110.570,131.114 110.563,168.200 110.294 C 176.120 110.237,159.650 110.150,131.600 110.101 C 103.550 110.052,80.392 110.144,80.138 110.306 M298.433 110.143 C 298.525 110.222,299.320 110.397,300.200 110.532 C 301.290 110.699,301.609 110.655,301.200 110.395 C 300.653 110.046,298.045 109.809,298.433 110.143 M75.240 113.403 C 73.695 115.079,72.559 117.093,72.943 117.476 C 73.033 117.567,73.296 117.102,73.525 116.442 C 73.755 115.783,74.699 114.424,75.622 113.422 C 76.546 112.420,77.212 111.600,77.102 111.600 C 76.992 111.600,76.154 112.411,75.240 113.403 M72.520 120.000 C 72.520 121.210,72.595 121.705,72.687 121.100 C 72.778 120.495,72.778 119.505,72.687 118.900 C 72.595 118.295,72.520 118.790,72.520 120.000 M308.114 119.800 C 308.117 120.900,308.195 121.303,308.287 120.695 C 308.379 120.086,308.377 119.186,308.282 118.695 C 308.187 118.203,308.111 118.700,308.114 119.800 M74.000 125.123 C 74.000 126.005,77.624 128.959,79.200 129.363 C 79.750 129.504,79.440 129.238,78.511 128.771 C 77.582 128.304,76.187 127.219,75.411 126.360 C 74.635 125.501,74.000 124.944,74.000 125.123 M305.784 126.426 C 305.639 126.661,304.791 127.381,303.900 128.026 C 303.009 128.672,302.464 129.200,302.689 129.200 C 303.149 129.200,306.754 126.042,306.324 126.016 C 306.172 126.007,305.929 126.192,305.784 126.426 M135.532 129.900 C 165.965 129.957,215.645 129.957,245.932 129.900 C 276.220 129.843,251.320 129.797,190.600 129.797 C 129.880 129.797,105.100 129.843,135.532 129.900 M79.800 150.385 C 79.330 150.578,80.073 150.626,81.600 150.502 C 83.030 150.387,84.275 150.226,84.367 150.146 C 84.704 149.851,80.574 150.067,79.800 150.385 M298.833 150.147 C 298.925 150.228,299.720 150.404,300.600 150.538 C 301.715 150.707,301.958 150.671,301.400 150.419 C 300.632 150.071,298.490 149.844,298.833 150.147 M76.901 151.700 C 76.193 152.195,75.611 152.766,75.607 152.970 C 75.603 153.173,76.005 152.973,76.500 152.524 C 76.995 152.076,77.760 151.510,78.200 151.267 C 78.640 151.023,78.817 150.819,78.594 150.812 C 78.371 150.805,77.609 151.205,76.901 151.700 M327.400 151.184 C 326.960 151.365,325.560 151.842,324.290 152.243 C 322.423 152.833,321.656 153.359,320.294 154.986 C 319.367 156.094,317.406 158.260,315.935 159.800 C 312.378 163.526,311.201 164.919,311.200 165.401 C 311.200 165.622,324.947 179.548,341.750 196.350 C 366.761 221.359,372.260 227.048,372.083 227.727 C 371.890 228.463,371.937 228.491,372.491 227.979 C 372.835 227.660,373.034 227.265,372.934 227.100 C 372.835 226.935,372.898 226.799,373.076 226.798 C 373.912 226.793,384.111 216.316,383.593 215.995 C 383.162 215.729,383.259 215.350,384.072 214.122 C 385.145 212.501,385.476 211.122,385.858 206.700 C 386.017 204.845,385.951 204.000,385.645 204.000 C 385.400 204.000,385.200 203.460,385.200 202.800 C 385.200 202.140,385.020 201.600,384.800 201.600 C 384.580 201.600,384.400 201.283,384.400 200.896 C 384.400 200.509,384.019 199.954,383.553 199.663 C 382.870 199.237,382.749 198.869,382.928 197.767 C 383.050 197.015,382.983 196.400,382.779 196.400 C 382.279 196.400,372.400 186.498,372.400 185.996 C 372.400 185.778,372.249 185.600,372.064 185.600 C 371.680 185.600,366.800 180.802,366.800 180.424 C 366.800 180.288,366.411 179.912,365.937 179.588 C 365.276 179.138,358.185 172.158,355.587 169.400 C 354.381 168.120,349.717 163.426,349.276 163.048 C 348.988 162.802,347.806 161.700,346.650 160.600 C 345.494 159.500,344.290 158.553,343.974 158.495 C 343.658 158.437,342.320 157.248,341.000 155.854 C 338.622 153.341,334.795 151.054,333.279 151.240 C 332.906 151.286,332.283 151.185,331.895 151.017 C 331.506 150.848,330.962 150.900,330.681 151.132 C 330.360 151.399,329.958 151.418,329.587 151.183 C 328.890 150.743,328.470 150.743,327.400 151.184 M304.033 152.100 C 304.125 152.155,304.740 152.650,305.400 153.200 L 306.600 154.200 305.630 153.100 C 305.097 152.495,304.482 152.000,304.264 152.000 C 304.045 152.000,303.942 152.045,304.033 152.100 M74.095 154.623 C 73.603 155.374,73.200 156.123,73.200 156.287 C 73.200 156.451,73.666 155.900,74.236 155.062 C 74.805 154.224,75.208 153.475,75.131 153.398 C 75.054 153.320,74.588 153.872,74.095 154.623 M72.643 157.433 C 71.085 161.491,75.738 169.657,79.569 169.589 C 79.916 169.583,79.430 169.178,78.490 168.689 C 74.551 166.642,72.617 163.412,72.878 159.317 C 73.048 156.635,73.024 156.439,72.643 157.433 M308.120 160.000 C 308.120 161.210,308.195 161.705,308.287 161.100 C 308.378 160.495,308.378 159.505,308.287 158.900 C 308.195 158.295,308.120 158.790,308.120 160.000 M305.051 166.940 C 303.980 168.007,303.440 168.697,303.851 168.473 C 304.728 167.996,307.426 165.261,307.173 165.106 C 307.078 165.048,306.123 165.873,305.051 166.940 M136.332 169.900 C 166.545 169.957,215.865 169.957,245.932 169.900 C 276.000 169.843,251.280 169.797,191.000 169.797 C 130.720 169.797,106.120 169.843,136.332 169.900 M294.236 180.409 C 289.423 185.254,285.567 189.301,285.668 189.401 C 285.769 189.502,287.821 187.563,290.230 185.092 C 300.935 174.110,303.342 171.600,303.171 171.600 C 303.070 171.600,299.049 175.564,294.236 180.409 M311.002 178.802 C 311.402 179.244,311.811 179.522,311.912 179.421 C 312.128 179.205,310.988 178.000,310.567 178.000 C 310.407 178.000,310.603 178.361,311.002 178.802 M81.600 189.998 C 81.050 190.173,126.590 190.220,182.800 190.103 C 239.010 189.985,285.075 189.824,285.167 189.744 C 285.515 189.442,82.551 189.695,81.600 189.998 M76.765 191.767 C 75.148 192.953,72.916 195.849,73.313 196.246 C 73.392 196.326,73.846 195.700,74.321 194.856 C 75.177 193.332,77.280 191.603,79.200 190.845 C 80.042 190.513,80.074 190.448,79.400 190.435 C 78.960 190.427,77.774 191.026,76.765 191.767 M324.800 192.306 C 324.800 192.486,325.610 193.428,326.600 194.400 C 327.590 195.372,328.400 196.034,328.400 195.873 C 328.400 195.711,327.590 194.769,326.600 193.779 C 325.610 192.789,324.800 192.126,324.800 192.306 M328.800 196.312 C 328.800 196.504,329.250 197.083,329.800 197.600 C 330.350 198.117,330.800 198.410,330.800 198.252 C 330.800 198.093,330.350 197.514,329.800 196.964 C 329.250 196.414,328.800 196.120,328.800 196.312 M72.643 197.433 C 72.304 198.315,72.350 202.102,72.706 202.662 C 72.868 202.916,73.000 201.701,73.000 199.962 C 73.000 196.521,72.998 196.507,72.643 197.433 M332.800 200.356 C 332.800 200.735,334.755 202.599,334.911 202.368 C 334.974 202.276,334.524 201.716,333.912 201.126 C 333.301 200.535,332.800 200.188,332.800 200.356 M73.212 204.100 C 73.206 204.485,73.337 204.800,73.505 204.800 C 73.673 204.800,73.988 205.200,74.205 205.690 C 74.722 206.856,78.376 209.598,79.400 209.589 C 79.928 209.585,79.656 209.323,78.600 208.818 C 76.395 207.764,75.343 206.849,74.202 204.990 C 73.595 204.003,73.220 203.665,73.212 204.100 M341.789 209.589 C 343.311 211.122,344.628 212.306,344.715 212.218 C 344.916 212.017,339.719 206.800,339.318 206.800 C 339.155 206.800,340.267 208.055,341.789 209.589 M81.400 210.000 C 81.840 210.189,123.149 210.356,173.197 210.372 L 264.194 210.400 254.600 220.000 L 245.006 229.600 163.803 229.640 C 119.141 229.662,82.150 229.824,81.600 230.000 C 81.050 230.176,117.377 230.338,162.326 230.360 C 220.445 230.388,244.287 230.274,244.864 229.965 C 246.320 229.187,264.872 210.440,264.609 210.014 C 264.433 209.731,235.374 209.609,172.476 209.628 C 120.861 209.644,80.951 209.807,81.400 210.000 M75.672 232.631 C 74.752 233.418,74.000 234.318,74.000 234.631 C 74.000 234.944,73.820 235.200,73.600 235.200 C 73.380 235.200,73.206 235.515,73.212 235.900 C 73.220 236.342,73.573 236.034,74.167 235.067 C 74.686 234.224,75.715 233.016,76.455 232.383 C 77.195 231.750,77.697 231.225,77.572 231.216 C 77.447 231.207,76.592 231.844,75.672 232.631 M72.667 237.067 C 72.299 237.434,72.329 242.709,72.700 242.938 C 72.865 243.040,73.000 241.701,73.000 239.962 C 73.000 238.223,72.985 236.800,72.967 236.800 C 72.948 236.800,72.813 236.920,72.667 237.067 M74.013 245.419 C 73.970 246.813,77.955 249.399,81.045 249.983 C 83.760 250.496,224.800 250.807,224.800 250.300 C 224.800 250.135,192.949 250.000,154.020 250.000 C 104.124 250.000,82.614 249.870,81.120 249.560 C 78.555 249.028,75.966 247.601,74.849 246.105 C 74.396 245.497,74.020 245.188,74.013 245.419 M219.955 254.561 C 217.146 257.441,216.075 258.847,215.589 260.289 C 215.234 261.340,214.573 263.010,214.120 264.000 C 213.667 264.990,213.190 266.340,213.059 267.000 C 212.829 268.160,212.836 268.166,213.265 267.200 C 213.510 266.650,214.135 265.282,214.655 264.160 C 215.175 263.038,215.600 261.834,215.600 261.484 C 215.600 261.134,215.780 260.736,216.000 260.600 C 216.220 260.464,216.400 260.021,216.400 259.615 C 216.400 259.209,218.114 257.124,220.209 254.981 C 222.304 252.838,223.941 251.008,223.847 250.914 C 223.754 250.820,222.002 252.461,219.955 254.561 M316.599 282.851 C 292.995 306.500,287.449 312.200,291.527 308.615 C 292.747 307.543,304.717 295.622,307.854 292.355 C 309.203 290.950,311.633 288.513,313.254 286.940 C 314.874 285.367,322.311 277.897,329.780 270.340 C 337.248 262.783,343.728 256.381,344.180 256.114 C 344.755 255.773,344.821 255.624,344.399 255.614 C 344.068 255.606,331.558 267.863,316.599 282.851 M79.000 270.400 C 78.864 270.620,78.494 270.800,78.177 270.800 C 77.861 270.800,76.926 271.465,76.101 272.277 L 74.600 273.754 76.000 272.669 C 76.770 272.073,77.850 271.363,78.400 271.092 C 79.174 270.711,94.286 270.554,145.400 270.398 L 211.400 270.195 145.324 270.098 C 101.599 270.033,79.164 270.135,79.000 270.400 M73.244 275.796 C 70.420 281.804,75.127 290.154,81.226 289.955 C 82.459 289.915,82.402 289.873,80.670 289.541 C 74.471 288.354,70.947 281.395,73.746 275.868 C 74.266 274.841,74.555 274.000,74.390 274.000 C 74.224 274.000,73.708 274.808,73.244 275.796 M248.000 289.400 C 253.607 295.010,258.284 299.600,258.394 299.600 C 258.504 299.600,254.007 295.010,248.400 289.400 C 242.793 283.790,238.116 279.200,238.006 279.200 C 237.896 279.200,242.393 283.790,248.000 289.400 M202.900 291.919 C 202.405 292.967,202.000 294.098,202.000 294.432 C 202.000 294.766,201.837 295.211,201.638 295.420 C 200.741 296.361,199.600 298.931,199.600 300.012 C 199.600 300.665,199.420 301.200,199.200 301.200 C 198.980 301.200,198.800 301.560,198.800 302.000 C 198.800 302.440,198.620 302.800,198.400 302.800 C 198.180 302.800,198.000 303.149,198.000 303.576 C 198.000 304.003,197.820 304.464,197.600 304.600 C 197.380 304.736,197.200 305.287,197.200 305.824 C 197.200 306.361,197.057 306.800,196.883 306.800 C 196.708 306.800,196.373 307.522,196.137 308.404 C 195.779 309.745,195.798 309.933,196.255 309.555 C 196.555 309.306,196.800 308.852,196.800 308.546 C 196.800 308.240,196.973 307.677,197.185 307.295 C 197.713 306.341,199.552 301.749,200.186 299.800 C 200.677 298.293,201.135 297.209,203.443 292.100 C 203.964 290.945,204.258 290.003,204.096 290.007 C 203.933 290.011,203.395 290.871,202.900 291.919 M78.984 310.426 C 78.805 310.715,79.212 310.762,80.261 310.572 C 82.303 310.203,82.455 310.000,80.690 310.000 C 79.897 310.000,79.129 310.191,78.984 310.426 M300.600 310.400 C 301.796 310.914,302.795 310.914,302.000 310.400 C 301.670 310.187,301.040 310.022,300.600 310.034 L 299.800 310.056 300.600 310.400 M76.860 311.442 C 76.045 312.363,76.482 312.445,77.606 311.582 C 78.256 311.082,78.392 310.820,78.000 310.824 C 77.670 310.828,77.157 311.105,76.860 311.442 M305.222 313.096 C 305.980 313.918,306.645 314.668,306.700 314.762 C 306.755 314.856,306.885 314.848,306.989 314.744 C 307.270 314.463,304.815 311.600,304.292 311.600 C 304.045 311.600,304.463 312.273,305.222 313.096 M74.464 313.789 C 73.769 314.553,73.200 315.443,73.200 315.766 C 73.200 316.089,73.020 316.464,72.800 316.600 C 72.029 317.076,72.328 322.647,73.208 324.213 C 74.614 326.717,75.279 327.600,75.758 327.600 C 76.014 327.600,76.483 327.960,76.800 328.400 C 77.117 328.840,77.697 329.200,78.088 329.200 C 78.480 329.200,78.800 329.380,78.800 329.600 C 78.800 329.864,88.304 329.968,106.700 329.905 L 134.600 329.811 107.000 329.605 C 91.248 329.488,79.057 329.240,78.600 329.027 C 72.660 326.257,71.014 319.115,75.068 313.700 C 76.340 312.001,76.053 312.043,74.464 313.789 M308.133 319.688 C 308.133 322.067,307.949 323.020,307.267 324.177 C 306.317 325.787,306.251 326.000,306.706 326.000 C 307.845 326.000,309.228 319.553,308.500 317.634 C 308.225 316.909,308.133 317.422,308.133 319.688 M40.667 319.467 C 40.520 319.613,40.400 321.043,40.400 322.643 C 40.400 324.243,40.220 325.664,40.000 325.800 C 39.472 326.126,39.495 332.126,40.040 336.400 C 40.278 338.270,40.457 340.227,40.437 340.748 C 40.386 342.090,41.332 344.801,43.649 349.946 C 45.140 353.259,52.329 361.762,54.137 362.351 C 54.391 362.434,54.960 362.818,55.400 363.205 C 56.431 364.111,62.413 366.936,65.000 367.738 C 70.538 369.455,66.418 369.400,190.600 369.400 L 309.000 369.400 312.478 368.513 C 316.480 367.492,323.666 364.133,326.122 362.135 C 328.739 360.006,330.528 358.321,331.400 357.163 C 331.840 356.579,332.961 355.101,333.892 353.879 C 336.853 349.988,339.028 345.004,339.685 340.600 C 340.288 336.560,340.532 326.372,340.038 325.878 C 339.797 325.637,339.600 324.252,339.600 322.800 C 339.600 318.963,340.564 319.200,324.947 319.200 C 309.635 319.200,311.121 318.890,310.582 322.200 C 310.276 324.085,309.530 326.000,309.102 326.000 C 308.936 326.000,308.800 326.255,308.800 326.566 C 308.800 327.377,305.320 330.348,303.200 331.348 C 301.134 332.322,253.994 332.954,253.060 332.020 C 252.767 331.727,252.995 331.597,253.820 331.591 C 254.469 331.586,255.450 331.209,256.000 330.754 C 257.113 329.832,257.180 329.817,253.000 331.416 C 249.023 332.937,246.305 334.071,244.263 335.061 C 243.198 335.577,242.001 336.000,241.604 336.000 C 241.207 336.000,240.098 336.448,239.141 336.995 C 238.183 337.543,237.129 337.993,236.797 337.995 C 236.465 337.998,235.385 338.418,234.397 338.928 C 233.409 339.438,231.790 340.105,230.800 340.409 C 229.810 340.714,228.410 341.286,227.688 341.681 C 226.966 342.077,226.137 342.400,225.844 342.400 C 225.552 342.400,224.252 342.938,222.956 343.595 C 221.660 344.252,220.380 344.792,220.110 344.795 C 219.841 344.798,218.441 345.340,217.000 346.000 C 215.559 346.660,214.217 347.200,214.018 347.200 C 213.819 347.200,212.489 347.740,211.063 348.400 C 209.637 349.060,208.311 349.600,208.116 349.600 C 207.920 349.600,205.737 350.487,203.265 351.572 C 200.792 352.656,198.281 353.651,197.684 353.782 C 197.088 353.914,195.540 354.556,194.244 355.211 C 192.948 355.865,191.648 356.400,191.356 356.400 C 191.063 356.400,190.183 356.760,189.400 357.200 C 188.617 357.640,187.696 358.000,187.354 358.000 C 187.011 358.000,185.622 358.518,184.266 359.151 C 181.681 360.357,177.888 361.928,176.705 362.282 C 176.282 362.409,175.909 362.227,175.752 361.818 C 175.488 361.130,175.619 360.728,177.132 357.600 C 177.611 356.610,178.006 355.530,178.010 355.200 C 178.014 354.870,178.550 353.520,179.200 352.200 C 179.850 350.880,180.386 349.590,180.391 349.333 C 180.396 349.076,180.788 347.996,181.263 346.933 C 182.109 345.038,182.457 344.166,184.556 338.690 C 185.127 337.199,185.956 335.271,186.397 334.406 C 186.839 333.540,187.200 332.475,187.200 332.040 C 187.200 331.604,187.380 331.136,187.600 331.000 C 188.073 330.707,188.135 330.000,187.688 330.000 C 187.516 330.000,187.170 330.544,186.919 331.210 L 186.462 332.420 133.131 332.310 L 79.800 332.200 77.600 331.139 C 73.097 328.969,70.022 324.742,70.006 320.700 L 70.000 319.200 55.467 319.200 C 47.473 319.200,40.813 319.320,40.667 319.467 M304.473 327.707 C 303.523 328.408,302.935 329.045,303.167 329.122 C 303.398 329.199,304.265 328.620,305.094 327.835 C 306.950 326.076,306.741 326.033,304.473 327.707 M300.200 329.600 C 299.074 329.887,299.105 329.908,300.700 329.953 C 301.635 329.979,302.400 329.820,302.400 329.600 C 302.400 329.153,301.956 329.153,300.200 329.600 M133.132 373.100 C 164.665 373.156,216.145 373.156,247.532 373.100 C 278.920 373.043,253.120 372.997,190.200 372.997 C 127.280 372.997,101.600 373.043,133.132 373.100 " stroke="none" fill="#b0dffa" fill-rule="evenodd"></path><path id="path7" d="M299.492 175.907 C 297.352 178.056,295.600 179.918,295.600 180.045 C 295.600 180.173,297.396 178.459,299.592 176.238 L 303.584 172.200 334.692 203.200 L 365.800 234.200 334.801 203.100 C 317.752 185.995,303.708 172.000,303.593 172.000 C 303.479 172.000,301.633 173.758,299.492 175.907 M212.183 270.772 C 212.309 270.977,212.230 271.258,212.007 271.396 C 211.783 271.534,211.600 271.992,211.600 272.414 C 211.600 272.836,211.241 273.770,210.801 274.490 C 210.362 275.211,210.002 276.083,210.001 276.429 C 210.001 276.775,209.460 278.173,208.800 279.535 C 208.140 280.898,207.600 282.247,207.600 282.533 C 207.600 282.819,207.060 284.109,206.400 285.400 C 205.740 286.691,205.199 288.118,205.198 288.573 C 205.196 289.028,204.923 289.922,204.590 290.560 C 204.258 291.197,204.055 291.788,204.139 291.872 C 204.319 292.052,205.642 290.101,205.783 289.449 C 205.952 288.660,206.445 287.442,207.233 285.862 C 207.655 285.016,208.006 284.026,208.013 283.662 C 208.019 283.298,208.559 281.925,209.213 280.610 C 209.866 279.296,210.400 277.936,210.400 277.589 C 210.400 277.241,210.847 276.061,211.393 274.965 C 212.615 272.512,213.093 270.400,212.426 270.400 C 212.166 270.400,212.056 270.568,212.183 270.772 M203.079 293.300 C 202.961 293.795,202.739 294.605,202.586 295.100 C 202.432 295.595,202.463 295.999,202.653 295.997 C 203.097 295.993,204.000 294.063,204.000 293.120 C 204.000 292.097,203.335 292.227,203.079 293.300 M201.445 297.512 C 201.090 298.199,200.807 298.994,200.816 299.280 C 200.824 299.566,201.106 299.170,201.441 298.400 L 202.052 297.000 209.326 304.450 C 213.327 308.547,217.882 313.227,219.450 314.850 C 221.017 316.472,226.377 321.743,231.360 326.562 L 240.420 335.324 238.835 336.225 C 237.963 336.720,236.734 337.239,236.104 337.377 C 235.473 337.516,234.082 338.072,233.011 338.614 C 231.940 339.157,230.780 339.602,230.432 339.605 C 230.084 339.608,228.740 340.148,227.444 340.805 C 226.148 341.462,224.798 342.000,224.444 341.999 C 224.090 341.998,222.990 342.389,222.000 342.868 C 221.010 343.347,219.840 343.862,219.400 344.014 C 218.960 344.165,217.880 344.618,217.000 345.021 C 216.120 345.423,214.680 345.966,213.800 346.227 C 212.920 346.489,210.670 347.376,208.800 348.199 C 206.930 349.022,204.264 350.111,202.876 350.618 C 201.488 351.125,199.919 351.823,199.390 352.170 C 198.861 352.516,198.168 352.800,197.850 352.800 C 197.532 352.800,196.131 353.340,194.736 354.000 C 193.341 354.660,191.978 355.200,191.706 355.200 C 191.435 355.200,190.098 355.740,188.735 356.400 C 187.373 357.060,186.026 357.600,185.741 357.600 C 185.457 357.600,184.583 357.960,183.800 358.400 C 183.017 358.840,182.116 359.200,181.799 359.200 C 181.482 359.200,180.228 359.640,179.011 360.178 C 176.364 361.349,176.259 361.089,178.000 357.662 C 178.660 356.364,179.200 354.864,179.200 354.331 C 179.200 353.797,179.388 353.172,179.617 352.943 C 180.020 352.540,181.722 348.369,183.204 344.155 C 183.599 343.030,184.224 341.528,184.591 340.817 C 184.958 340.107,185.182 339.449,185.088 339.355 C 184.866 339.132,182.800 343.729,182.799 344.450 C 182.798 344.753,182.475 345.540,182.082 346.200 C 181.689 346.860,181.113 348.210,180.802 349.200 C 180.491 350.190,179.950 351.540,179.598 352.200 C 179.247 352.860,178.725 354.210,178.438 355.200 C 178.152 356.190,177.741 357.217,177.525 357.481 C 176.103 359.226,176.069 362.971,177.488 361.552 C 177.864 361.176,182.136 359.441,186.231 358.001 C 187.349 357.608,189.007 356.907,189.916 356.443 C 190.824 355.979,191.750 355.600,191.972 355.600 C 192.194 355.600,193.327 355.171,194.488 354.647 C 195.650 354.123,197.050 353.565,197.600 353.407 C 198.150 353.249,199.664 352.598,200.964 351.960 C 202.264 351.322,203.614 350.799,203.964 350.799 C 204.314 350.798,205.155 350.459,205.833 350.045 C 206.512 349.631,207.629 349.169,208.316 349.018 C 209.003 348.867,210.338 348.362,211.283 347.895 C 212.992 347.049,214.137 346.590,219.324 344.669 C 220.822 344.114,222.442 343.405,222.924 343.094 C 223.406 342.782,224.334 342.395,224.986 342.234 C 225.638 342.073,226.911 341.605,227.814 341.194 C 228.717 340.782,230.163 340.186,231.028 339.868 C 233.419 338.990,236.756 337.619,239.179 336.520 L 241.359 335.531 231.692 326.141 C 226.374 320.977,217.539 312.142,212.057 306.508 L 202.091 296.264 201.445 297.512 M199.495 302.486 C 198.016 305.882,198.102 306.432,199.613 303.238 C 200.280 301.828,200.772 300.517,200.708 300.323 C 200.643 300.130,200.098 301.103,199.495 302.486 M197.144 308.225 C 196.573 309.421,196.231 310.400,196.384 310.400 C 196.736 310.400,198.598 306.465,198.360 306.226 C 198.263 306.130,197.716 307.029,197.144 308.225 M271.000 323.007 C 268.580 323.992,266.240 324.965,265.800 325.171 C 265.360 325.376,264.280 325.762,263.400 326.028 C 262.520 326.294,261.322 326.846,260.738 327.256 C 260.154 327.665,259.327 328.000,258.900 328.000 C 257.911 328.000,255.283 329.294,255.873 329.491 C 256.517 329.706,264.379 326.793,267.385 325.226 C 268.256 324.772,269.268 324.400,269.634 324.400 C 270.000 324.400,271.087 323.968,272.050 323.440 C 273.012 322.911,274.383 322.357,275.095 322.209 C 275.808 322.060,276.494 321.772,276.619 321.569 C 277.092 320.804,275.260 321.273,271.000 323.007 M188.100 330.693 C 187.825 331.279,187.607 332.039,187.616 332.380 C 187.624 332.721,187.899 332.384,188.226 331.630 C 188.934 329.999,188.821 329.156,188.100 330.693 M186.278 335.420 C 185.685 336.629,185.214 337.929,185.232 338.309 C 185.257 338.858,185.307 338.877,185.476 338.400 C 185.593 338.070,186.143 336.849,186.698 335.687 C 187.253 334.524,187.628 333.494,187.531 333.398 C 187.435 333.301,186.871 334.211,186.278 335.420 " stroke="none" fill="#746c58" fill-rule="evenodd"></path><path id="path8" d="M217.153 260.300 C 217.106 261.793,217.104 261.794,216.800 260.600 L 216.495 259.400 216.453 260.600 C 216.380 262.697,216.788 263.435,218.328 263.990 C 223.469 265.843,223.888 268.895,220.046 276.510 C 215.641 285.239,215.020 291.582,217.788 299.600 C 218.129 300.590,218.518 301.715,218.651 302.100 C 219.386 304.223,219.849 302.314,219.182 299.912 C 217.791 294.903,218.044 289.074,219.865 284.200 C 220.844 281.581,223.706 276.765,224.462 276.467 C 224.648 276.393,224.800 276.079,224.800 275.768 C 224.800 275.456,225.430 274.534,226.199 273.718 C 226.969 272.902,227.701 271.912,227.826 271.517 C 228.073 270.741,229.001 270.554,229.400 271.200 C 229.536 271.420,229.803 271.600,229.994 271.600 C 230.185 271.600,227.636 268.874,224.330 265.542 C 219.669 260.846,218.232 259.610,217.933 260.042 C 217.656 260.443,217.619 260.346,217.801 259.700 C 217.950 259.171,217.878 258.800,217.627 258.800 C 217.392 258.800,217.179 259.475,217.153 260.300 M215.167 263.245 C 213.764 265.491,213.278 267.200,214.043 267.200 C 214.286 267.200,214.390 266.951,214.274 266.648 C 214.157 266.344,214.510 265.435,215.058 264.629 C 215.606 263.822,215.989 262.966,215.909 262.727 C 215.829 262.487,215.495 262.720,215.167 263.245 M212.885 268.813 C 212.618 269.240,212.407 269.817,212.416 270.095 C 212.425 270.373,212.709 270.089,213.047 269.465 C 213.750 268.168,213.618 267.638,212.885 268.813 M204.032 290.739 C 203.795 291.184,203.601 291.784,203.602 292.074 C 203.604 292.363,203.877 292.078,204.210 291.440 C 204.542 290.803,204.736 290.202,204.640 290.106 C 204.543 290.010,204.270 290.295,204.032 290.739 M266.000 307.602 C 266.000 307.767,266.270 308.126,266.600 308.400 C 267.435 309.093,267.350 309.499,266.300 309.831 C 265.805 309.988,264.427 310.983,263.239 312.042 C 262.050 313.101,260.430 314.271,259.639 314.643 C 258.847 315.014,258.110 315.448,258.000 315.607 C 256.120 318.318,242.053 320.787,239.088 318.926 C 238.819 318.758,238.327 318.665,237.994 318.719 C 237.661 318.774,236.491 318.551,235.394 318.224 L 233.400 317.629 234.400 318.416 C 234.950 318.848,235.850 319.304,236.400 319.429 C 236.950 319.553,237.850 319.840,238.400 320.066 C 238.950 320.292,240.210 320.627,241.200 320.810 C 242.190 320.993,243.766 321.337,244.701 321.574 C 247.554 322.296,252.353 321.640,256.562 319.951 C 259.316 318.847,262.797 317.058,262.799 316.746 C 262.808 314.983,269.780 314.471,271.422 316.113 C 272.966 317.657,274.399 319.953,273.980 320.212 C 272.764 320.964,275.564 321.315,277.500 320.653 C 278.899 320.176,278.780 320.015,272.200 313.470 C 268.790 310.078,266.000 307.438,266.000 307.602 M254.800 330.200 C 254.250 330.514,253.565 330.778,253.278 330.786 C 252.636 330.803,246.188 333.436,241.600 335.555 L 240.600 336.017 241.715 335.797 C 242.328 335.676,243.997 335.042,245.425 334.389 C 246.852 333.735,248.190 333.200,248.398 333.200 C 248.606 333.200,249.366 332.873,250.088 332.472 C 250.810 332.072,252.252 331.510,253.292 331.222 C 254.333 330.935,255.390 330.453,255.641 330.150 C 256.208 329.467,256.067 329.476,254.800 330.200 " stroke="none" fill="#ccbc9a" fill-rule="evenodd"></path></g></svg>